<svg width="99" height="23" viewBox="0 0 99 23" fill="none" xmlns="http://www.w3.org/2000/svg">
<rect x="60" width="39" height="23" rx="3" fill="#4A90E2"/>
<path d="M1.709 13.2481V17.0001H0.358002V6.96911H3.319C3.95367 6.96911 4.50434 7.04378 4.971 7.19311C5.44234 7.33778 5.832 7.54544 6.14 7.81611C6.448 8.08678 6.67667 8.41344 6.826 8.79611C6.98 9.17878 7.057 9.60578 7.057 10.0771C7.057 10.5438 6.97534 10.9708 6.812 11.3581C6.64867 11.7454 6.40834 12.0791 6.091 12.3591C5.77834 12.6391 5.38867 12.8584 4.922 13.0171C4.45534 13.1711 3.921 13.2481 3.319 13.2481H1.709ZM1.709 12.1701H3.319C3.70634 12.1701 4.047 12.1188 4.341 12.0161C4.63967 11.9134 4.88934 11.7711 5.09 11.5891C5.29067 11.4024 5.44234 11.1808 5.545 10.9241C5.64767 10.6674 5.699 10.3851 5.699 10.0771C5.699 9.43778 5.50067 8.93844 5.104 8.57911C4.712 8.21978 4.117 8.04011 3.319 8.04011H1.709V12.1701Z" fill="white"/>
<path d="M8.5806 17.0001V9.90911H9.2946C9.42993 9.90911 9.52326 9.93478 9.5746 9.98611C9.62593 10.0374 9.66093 10.1261 9.67959 10.2521L9.7636 11.3581C10.0063 10.8634 10.3049 10.4784 10.6596 10.2031C11.0189 9.92311 11.4389 9.78311 11.9196 9.78311C12.1156 9.78311 12.2929 9.80644 12.4516 9.85311C12.6103 9.89511 12.7573 9.95578 12.8926 10.0351L12.7316 10.9661C12.6989 11.0828 12.6266 11.1411 12.5146 11.1411C12.4493 11.1411 12.3489 11.1201 12.2136 11.0781C12.0783 11.0314 11.8893 11.0081 11.6466 11.0081C11.2126 11.0081 10.8486 11.1341 10.5546 11.3861C10.2653 11.6381 10.0226 12.0044 9.8266 12.4851V17.0001H8.5806Z" fill="white"/>
<path d="M17.0341 9.79711C17.4587 9.79711 17.8507 9.86944 18.2101 10.0141C18.5694 10.1541 18.8797 10.3594 19.1411 10.6301C19.4024 10.8961 19.6054 11.2274 19.7501 11.6241C19.8994 12.0161 19.9741 12.4641 19.9741 12.9681C19.9741 13.1641 19.9531 13.2948 19.9111 13.3601C19.8691 13.4254 19.7897 13.4581 19.6731 13.4581H14.9551C14.9644 13.9061 15.0251 14.2958 15.1371 14.6271C15.2491 14.9584 15.4031 15.2361 15.5991 15.4601C15.7951 15.6794 16.0284 15.8451 16.2991 15.9571C16.5697 16.0644 16.8731 16.1181 17.2091 16.1181C17.5217 16.1181 17.7901 16.0831 18.0141 16.0131C18.2427 15.9384 18.4387 15.8591 18.6021 15.7751C18.7654 15.6911 18.9007 15.6141 19.0081 15.5441C19.1201 15.4694 19.2157 15.4321 19.2951 15.4321C19.3977 15.4321 19.4771 15.4718 19.5331 15.5511L19.8831 16.0061C19.7291 16.1928 19.5447 16.3561 19.3301 16.4961C19.1154 16.6314 18.8844 16.7434 18.6371 16.8321C18.3944 16.9208 18.1424 16.9861 17.8811 17.0281C17.6197 17.0748 17.3607 17.0981 17.1041 17.0981C16.6141 17.0981 16.1614 17.0164 15.7461 16.8531C15.3354 16.6851 14.9784 16.4424 14.6751 16.1251C14.3764 15.8031 14.1431 15.4064 13.9751 14.9351C13.8071 14.4638 13.7231 13.9224 13.7231 13.3111C13.7231 12.8164 13.7977 12.3544 13.9471 11.9251C14.1011 11.4958 14.3204 11.1248 14.6051 10.8121C14.8897 10.4948 15.2374 10.2474 15.6481 10.0701C16.0587 9.88811 16.5207 9.79711 17.0341 9.79711ZM17.0621 10.7141C16.4601 10.7141 15.9864 10.8891 15.6411 11.2391C15.2957 11.5844 15.0811 12.0651 14.9971 12.6811H18.8541C18.8541 12.3918 18.8144 12.1281 18.7351 11.8901C18.6557 11.6474 18.5391 11.4398 18.3851 11.2671C18.2311 11.0898 18.0421 10.9544 17.8181 10.8611C17.5987 10.7631 17.3467 10.7141 17.0621 10.7141Z" fill="white"/>
<path d="M21.5689 17.0001V9.90911H22.3109C22.4882 9.90911 22.6002 9.99544 22.6469 10.1681L22.7379 10.8961C22.9992 10.5741 23.2909 10.3104 23.6129 10.1051C23.9395 9.89978 24.3175 9.79711 24.7469 9.79711C25.2275 9.79711 25.6149 9.93011 25.9089 10.1961C26.2075 10.4621 26.4222 10.8214 26.5529 11.2741C26.6509 11.0174 26.7792 10.7958 26.9379 10.6091C27.1012 10.4224 27.2832 10.2684 27.4839 10.1471C27.6845 10.0258 27.8969 9.93711 28.1209 9.88111C28.3495 9.82511 28.5805 9.79711 28.8139 9.79711C29.1872 9.79711 29.5185 9.85778 29.8079 9.97911C30.1019 10.0958 30.3492 10.2684 30.5499 10.4971C30.7552 10.7258 30.9115 11.0081 31.0189 11.3441C31.1262 11.6754 31.1799 12.0558 31.1799 12.4851V17.0001H29.9339V12.4851C29.9339 11.9298 29.8125 11.5098 29.5699 11.2251C29.3272 10.9358 28.9749 10.7911 28.5129 10.7911C28.3075 10.7911 28.1115 10.8284 27.9249 10.9031C27.7429 10.9731 27.5819 11.0781 27.4419 11.2181C27.3019 11.3581 27.1899 11.5354 27.1059 11.7501C27.0265 11.9601 26.9869 12.2051 26.9869 12.4851V17.0001H25.7409V12.4851C25.7409 11.9158 25.6265 11.4911 25.3979 11.2111C25.1692 10.9311 24.8355 10.7911 24.3969 10.7911C24.0889 10.7911 23.8019 10.8751 23.5359 11.0431C23.2745 11.2064 23.0342 11.4304 22.8149 11.7151V17.0001H21.5689Z" fill="white"/>
<path d="M34.4529 9.90911V17.0001H33.2069V9.90911H34.4529ZM34.7329 7.68311C34.7329 7.80444 34.7073 7.91878 34.6559 8.02611C34.6093 8.12878 34.5439 8.22211 34.4599 8.30611C34.3806 8.38544 34.2873 8.44844 34.1799 8.49511C34.0726 8.54178 33.9583 8.56511 33.8369 8.56511C33.7156 8.56511 33.6013 8.54178 33.4939 8.49511C33.3913 8.44844 33.2979 8.38544 33.2139 8.30611C33.1346 8.22211 33.0716 8.12878 33.0249 8.02611C32.9783 7.91878 32.9549 7.80444 32.9549 7.68311C32.9549 7.56178 32.9783 7.44744 33.0249 7.34011C33.0716 7.22811 33.1346 7.13244 33.2139 7.05311C33.2979 6.96911 33.3913 6.90378 33.4939 6.85711C33.6013 6.81044 33.7156 6.78711 33.8369 6.78711C33.9583 6.78711 34.0726 6.81044 34.1799 6.85711C34.2873 6.90378 34.3806 6.96911 34.4599 7.05311C34.5439 7.13244 34.6093 7.22811 34.6559 7.34011C34.7073 7.44744 34.7329 7.56178 34.7329 7.68311Z" fill="white"/>
<path d="M37.727 9.90911V14.4311C37.727 14.9678 37.8506 15.3831 38.098 15.6771C38.3453 15.9711 38.7186 16.1181 39.218 16.1181C39.582 16.1181 39.925 16.0318 40.247 15.8591C40.569 15.6864 40.8653 15.4461 41.136 15.1381V9.90911H42.382V17.0001H41.64C41.4626 17.0001 41.3506 16.9138 41.304 16.7411L41.206 15.9781C40.898 16.3188 40.5526 16.5941 40.17 16.8041C39.7873 17.0094 39.3486 17.1121 38.854 17.1121C38.4666 17.1121 38.1236 17.0491 37.825 16.9231C37.531 16.7924 37.2836 16.6104 37.083 16.3771C36.8823 16.1438 36.7306 15.8614 36.628 15.5301C36.53 15.1988 36.481 14.8324 36.481 14.4311V9.90911H37.727Z" fill="white"/>
<path d="M44.4283 17.0001V9.90911H45.1702C45.3476 9.90911 45.4596 9.99544 45.5063 10.1681L45.5973 10.8961C45.8586 10.5741 46.1503 10.3104 46.4723 10.1051C46.7989 9.89978 47.1769 9.79711 47.6063 9.79711C48.0869 9.79711 48.4743 9.93011 48.7683 10.1961C49.0669 10.4621 49.2816 10.8214 49.4123 11.2741C49.5103 11.0174 49.6386 10.7958 49.7973 10.6091C49.9606 10.4224 50.1426 10.2684 50.3433 10.1471C50.5439 10.0258 50.7563 9.93711 50.9803 9.88111C51.2089 9.82511 51.4399 9.79711 51.6733 9.79711C52.0466 9.79711 52.3779 9.85778 52.6673 9.97911C52.9613 10.0958 53.2086 10.2684 53.4093 10.4971C53.6146 10.7258 53.7709 11.0081 53.8783 11.3441C53.9856 11.6754 54.0393 12.0558 54.0393 12.4851V17.0001H52.7933V12.4851C52.7933 11.9298 52.6719 11.5098 52.4293 11.2251C52.1866 10.9358 51.8343 10.7911 51.3723 10.7911C51.1669 10.7911 50.9709 10.8284 50.7843 10.9031C50.6023 10.9731 50.4412 11.0781 50.3013 11.2181C50.1613 11.3581 50.0493 11.5354 49.9653 11.7501C49.8859 11.9601 49.8463 12.2051 49.8463 12.4851V17.0001H48.6003V12.4851C48.6003 11.9158 48.4859 11.4911 48.2573 11.2111C48.0286 10.9311 47.6949 10.7911 47.2563 10.7911C46.9483 10.7911 46.6613 10.8751 46.3953 11.0431C46.1339 11.2064 45.8936 11.4304 45.6743 11.7151V17.0001H44.4283Z" fill="white"/>
<path d="M73.288 14.928C73.3627 14.928 73.4303 14.9583 73.491 15.019L74.023 15.6C73.6123 16.076 73.113 16.447 72.525 16.713C71.9417 16.979 71.237 17.112 70.411 17.112C69.6877 17.112 69.032 16.9883 68.444 16.741C67.856 16.489 67.3543 16.139 66.939 15.691C66.5237 15.2383 66.2017 14.697 65.973 14.067C65.7443 13.437 65.63 12.744 65.63 11.988C65.63 11.232 65.7513 10.539 65.994 9.909C66.2413 9.279 66.5867 8.73767 67.03 8.285C67.4733 7.83233 68.003 7.48233 68.619 7.235C69.2397 6.983 69.9233 6.857 70.67 6.857C71.4073 6.857 72.042 6.97133 72.574 7.2C73.1107 7.42867 73.5867 7.739 74.002 8.131L73.561 8.754C73.5283 8.80067 73.491 8.84033 73.449 8.873C73.407 8.901 73.3463 8.915 73.267 8.915C73.2063 8.915 73.141 8.894 73.071 8.852C73.0057 8.80533 72.9263 8.74933 72.833 8.684C72.7397 8.61867 72.63 8.54867 72.504 8.474C72.378 8.39933 72.2287 8.32933 72.056 8.264C71.8833 8.19867 71.6827 8.145 71.454 8.103C71.2253 8.05633 70.9617 8.033 70.663 8.033C70.1263 8.033 69.634 8.12633 69.186 8.313C68.7427 8.495 68.36 8.75633 68.038 9.097C67.716 9.43767 67.464 9.853 67.282 10.343C67.1047 10.833 67.016 11.3813 67.016 11.988C67.016 12.6133 67.1047 13.171 67.282 13.661C67.464 14.151 67.709 14.5663 68.017 14.907C68.3297 15.243 68.6983 15.4997 69.123 15.677C69.5477 15.8543 70.005 15.943 70.495 15.943C70.7937 15.943 71.062 15.9267 71.3 15.894C71.538 15.8567 71.7573 15.8007 71.958 15.726C72.1633 15.6513 72.3523 15.558 72.525 15.446C72.7023 15.3293 72.8797 15.1917 73.057 15.033C73.1363 14.963 73.2133 14.928 73.288 14.928ZM84.055 17H83.005C82.8837 17 82.7857 16.9697 82.711 16.909C82.6363 16.8483 82.5803 16.7713 82.543 16.678L81.605 14.256H77.104L76.166 16.678C76.1333 16.762 76.0773 16.8367 75.998 16.902C75.9187 16.9673 75.8207 17 75.704 17H74.654L78.665 6.969H80.044L84.055 17ZM77.482 13.276H81.227L79.652 9.195C79.5493 8.943 79.449 8.628 79.351 8.25C79.2997 8.44133 79.2483 8.61867 79.197 8.782C79.1503 8.94067 79.1037 9.08067 79.057 9.202L77.482 13.276ZM86.8086 12.814V17H85.4576V6.969H88.2926C88.9273 6.969 89.4756 7.03433 89.9376 7.165C90.3996 7.291 90.7799 7.47533 91.0786 7.718C91.3819 7.96067 91.6059 8.25467 91.7506 8.6C91.8953 8.94067 91.9676 9.32333 91.9676 9.748C91.9676 10.1027 91.9116 10.434 91.7996 10.742C91.6876 11.05 91.5243 11.3277 91.3096 11.575C91.0996 11.8177 90.8406 12.0253 90.5326 12.198C90.2293 12.3707 89.8839 12.5013 89.4966 12.59C89.6646 12.688 89.8139 12.8303 89.9446 13.017L92.8706 17H91.6666C91.4193 17 91.2373 16.9043 91.1206 16.713L88.5166 13.129C88.4373 13.017 88.3509 12.9377 88.2576 12.891C88.1643 12.8397 88.0243 12.814 87.8376 12.814H86.8086ZM86.8086 11.827H88.2296C88.6263 11.827 88.9739 11.7803 89.2726 11.687C89.5759 11.589 89.8279 11.4537 90.0286 11.281C90.2339 11.1037 90.3879 10.8937 90.4906 10.651C90.5933 10.4083 90.6446 10.14 90.6446 9.846C90.6446 9.24867 90.4463 8.79833 90.0496 8.495C89.6576 8.19167 89.0719 8.04 88.2926 8.04H86.8086V11.827Z" fill="white"/>
</svg>
