<svg width="62" height="22" viewBox="0 0 62 22" fill="none" xmlns="http://www.w3.org/2000/svg">
<rect width="62" height="22" rx="3" fill="#4A90E2"/>
<path d="M15.204 13.372L15.492 14.644H15.504L15.816 13.348L17.844 7.6H18.84L15.66 16.132H15.216L11.976 7.6H13.068L15.204 13.372ZM23.4329 15.52C23.1929 15.712 22.8889 15.864 22.5209 15.976C22.1609 16.088 21.7769 16.144 21.3689 16.144C20.9129 16.144 20.5169 16.072 20.1809 15.928C19.8449 15.776 19.5689 15.564 19.3529 15.292C19.1369 15.012 18.9769 14.68 18.8729 14.296C18.7689 13.912 18.7169 13.48 18.7169 13C18.7169 11.976 18.9449 11.196 19.4009 10.66C19.8569 10.124 20.5089 9.856 21.3569 9.856C21.6289 9.856 21.9009 9.888 22.1729 9.952C22.4449 10.008 22.6889 10.12 22.9049 10.288C23.1209 10.456 23.2969 10.696 23.4329 11.008C23.5689 11.312 23.6369 11.716 23.6369 12.22C23.6369 12.484 23.6129 12.776 23.5649 13.096H19.7129C19.7129 13.448 19.7489 13.76 19.8209 14.032C19.8929 14.304 20.0049 14.536 20.1569 14.728C20.3089 14.912 20.5049 15.056 20.7449 15.16C20.9929 15.256 21.2929 15.304 21.6449 15.304C21.9169 15.304 22.1889 15.256 22.4609 15.16C22.7329 15.064 22.9369 14.952 23.0729 14.824L23.4329 15.52ZM21.3689 10.696C20.8969 10.696 20.5169 10.82 20.2289 11.068C19.9489 11.316 19.7809 11.74 19.7249 12.34H22.7009C22.7009 11.732 22.5849 11.308 22.3529 11.068C22.1209 10.82 21.7929 10.696 21.3689 10.696ZM28.9987 16V12.58C28.9987 12.268 28.9787 11.996 28.9387 11.764C28.9067 11.524 28.8427 11.328 28.7467 11.176C28.6507 11.016 28.5187 10.896 28.3507 10.816C28.1907 10.736 27.9787 10.696 27.7147 10.696C27.3387 10.696 26.9987 10.82 26.6947 11.068C26.3907 11.308 26.1947 11.62 26.1067 12.004V16H25.1467V7.6H26.1067V10.672H26.1547C26.3627 10.424 26.6107 10.228 26.8987 10.084C27.1947 9.932 27.5587 9.856 27.9907 9.856C28.3267 9.856 28.6187 9.896 28.8667 9.976C29.1147 10.048 29.3187 10.18 29.4787 10.372C29.6467 10.564 29.7667 10.824 29.8387 11.152C29.9187 11.472 29.9587 11.88 29.9587 12.376V16H28.9987ZM31.9132 10H32.8732V16H31.9132V10ZM31.7092 8.176C31.7092 7.992 31.7692 7.836 31.8892 7.708C32.0172 7.572 32.1772 7.504 32.3692 7.504C32.5612 7.504 32.7252 7.572 32.8612 7.708C32.9972 7.836 33.0652 7.992 33.0652 8.176C33.0652 8.36 32.9972 8.512 32.8612 8.632C32.7252 8.752 32.5612 8.812 32.3692 8.812C32.1772 8.812 32.0172 8.752 31.8892 8.632C31.7692 8.512 31.7092 8.36 31.7092 8.176ZM39.0121 15.604C38.7721 15.78 38.4881 15.912 38.1601 16C37.8321 16.096 37.4881 16.144 37.1281 16.144C36.6641 16.144 36.2721 16.072 35.9521 15.928C35.6321 15.776 35.3681 15.564 35.1601 15.292C34.9601 15.012 34.8121 14.68 34.7161 14.296C34.6281 13.904 34.5841 13.472 34.5841 13C34.5841 11.984 34.8081 11.208 35.2561 10.672C35.7041 10.128 36.3481 9.856 37.1881 9.856C37.5721 9.856 37.8961 9.888 38.1601 9.952C38.4321 10.008 38.6761 10.092 38.8921 10.204L38.6161 11.032C38.4321 10.928 38.2281 10.848 38.0041 10.792C37.7801 10.728 37.5401 10.696 37.2841 10.696C36.1481 10.696 35.5801 11.464 35.5801 13C35.5801 13.304 35.6081 13.596 35.6641 13.876C35.7281 14.148 35.8281 14.392 35.9641 14.608C36.1081 14.816 36.2921 14.984 36.5161 15.112C36.7481 15.24 37.0321 15.304 37.3681 15.304C37.6561 15.304 37.9121 15.26 38.1361 15.172C38.3681 15.084 38.5561 14.984 38.7001 14.872L39.0121 15.604ZM41.4022 14.524C41.4022 14.804 41.4502 15.004 41.5462 15.124C41.6422 15.244 41.7782 15.304 41.9542 15.304C42.0582 15.304 42.1702 15.296 42.2902 15.28C42.4102 15.264 42.5462 15.228 42.6982 15.172L42.8062 15.928C42.6782 15.992 42.4982 16.044 42.2662 16.084C42.0422 16.124 41.8462 16.144 41.6782 16.144C41.3182 16.144 41.0222 16.044 40.7902 15.844C40.5582 15.636 40.4422 15.288 40.4422 14.8V7.6H41.4022V14.524ZM48.2181 15.52C47.9781 15.712 47.6741 15.864 47.3061 15.976C46.9461 16.088 46.5621 16.144 46.1541 16.144C45.6981 16.144 45.3021 16.072 44.9661 15.928C44.6301 15.776 44.3541 15.564 44.1381 15.292C43.9221 15.012 43.7621 14.68 43.6581 14.296C43.5541 13.912 43.5021 13.48 43.5021 13C43.5021 11.976 43.7301 11.196 44.1861 10.66C44.6421 10.124 45.2941 9.856 46.1421 9.856C46.4141 9.856 46.6861 9.888 46.9581 9.952C47.2301 10.008 47.4741 10.12 47.6901 10.288C47.9061 10.456 48.0821 10.696 48.2181 11.008C48.3541 11.312 48.4221 11.716 48.4221 12.22C48.4221 12.484 48.3981 12.776 48.3501 13.096H44.4981C44.4981 13.448 44.5341 13.76 44.6061 14.032C44.6781 14.304 44.7901 14.536 44.9421 14.728C45.0941 14.912 45.2901 15.056 45.5301 15.16C45.7781 15.256 46.0781 15.304 46.4301 15.304C46.7021 15.304 46.9741 15.256 47.2461 15.16C47.5181 15.064 47.7221 14.952 47.8581 14.824L48.2181 15.52ZM46.1541 10.696C45.6821 10.696 45.3021 10.82 45.0141 11.068C44.7341 11.316 44.5661 11.74 44.5101 12.34H47.4861C47.4861 11.732 47.3701 11.308 47.1381 11.068C46.9061 10.82 46.5781 10.696 46.1541 10.696Z" fill="white"/>
</svg>
